<svg width="512" height="512" viewBox="0 0 512 512" fill="none" xmlns="http://www.w3.org/2000/svg">
<g clip-path="url(#clip0_2111_13)">
<path d="M503.867 368.2V478.933H227.4C146.733 478.933 76.3335 434.2 38.9335 368.2C33.8002 358.667 28.6668 348.4 25.0002 338.133C16.9335 317.6 11.8002 295.6 10.3335 272.867V242.8C10.3335 237.667 11.0668 232.533 11.8002 227.4C13.2668 217.133 15.4668 206.867 17.6668 197.333C43.3335 104.2 127.667 36.7334 226.667 36.7334C325.667 36.7334 410 104.933 435.667 197.333H317.6C298.533 167.267 264.8 146.733 226.667 146.733C188.533 146.733 154.8 166.533 135.733 197.333C129.867 206.867 125.467 216.4 122.533 227.4C119.6 236.933 118.133 247.2 118.133 257.467C118.133 289 131.333 317.6 152.6 338.133C172.4 357.2 198.067 368.2 227.4 368.2H503.867Z" fill="#EF3D6F"/>
<path d="M503.867 227.4V338.133H302.2C323.467 318.333 336.667 289.733 336.667 257.467C336.667 225.2 335.2 236.933 332.267 227.4H503.867Z" fill="#EF3D6F"/>
</g>
<defs>
<clipPath id="clip0_2111_13">
<rect width="512" height="512" fill="white"/>
</clipPath>
</defs>
</svg>
